<svg xmlns="http://www.w3.org/2000/svg" viewBox="0 0 1200 720" width="1200" height="720">
  <defs>
    <radialGradient id="g3" cx="50%" cy="40%" r="60%">
      <stop offset="0%" stop-color="#1a1410"/><stop offset="100%" stop-color="#0d0c0b"/>
    </radialGradient>
  </defs>
  <rect width="1200" height="720" fill="url(#g3)" rx="12"/>
  <rect x="0" y="0" width="1200" height="44" fill="#1a1815" rx="12"/>
  <rect x="0" y="32" width="1200" height="12" fill="#1a1815"/>
  <circle cx="24" cy="22" r="6" fill="#ff5f57" opacity="0.7"/>
  <circle cx="44" cy="22" r="6" fill="#febc2e" opacity="0.7"/>
  <circle cx="64" cy="22" r="6" fill="#28c840" opacity="0.7"/>
  <!-- 3D Viewport -->
  <rect x="0" y="44" width="1200" height="676" fill="#0e0c0a"/>
  <!-- Abstract 3D wireframe object (icosahedron-like) -->
  <g opacity="0.6">
    <polygon points="600,180 480,340 560,340" fill="none" stroke="#c8b89a" stroke-width="1"/>
    <polygon points="600,180 640,340 560,340" fill="none" stroke="#c8b89a" stroke-width="1"/>
    <polygon points="600,180 640,340 720,340" fill="none" stroke="#a09d96" stroke-width="1" opacity="0.7"/>
    <polygon points="480,340 560,340 520,480" fill="#c8b89a" fill-opacity="0.04" stroke="#c8b89a" stroke-width="1"/>
    <polygon points="560,340 640,340 600,480" fill="#c8b89a" fill-opacity="0.07" stroke="#c8b89a" stroke-width="1"/>
    <polygon points="640,340 720,340 680,480" fill="none" stroke="#a09d96" stroke-width="1" opacity="0.6"/>
    <polygon points="520,480 600,480 560,580" fill="none" stroke="#c8b89a" stroke-width="1" opacity="0.5"/>
    <polygon points="600,480 680,480 640,580" fill="#c8b89a" fill-opacity="0.03" stroke="#c8b89a" stroke-width="1" opacity="0.5"/>
    <!-- Cross lines -->
    <line x1="480" y1="340" x2="720" y2="340" stroke="#c8b89a" stroke-width="0.5" opacity="0.3"/>
    <line x1="520" y1="480" x2="680" y2="480" stroke="#c8b89a" stroke-width="0.5" opacity="0.3"/>
    <line x1="600" y1="180" x2="600" y2="580" stroke="#c8b89a" stroke-width="0.5" opacity="0.2"/>
  </g>
  <!-- Floating particles -->
  <circle cx="200" cy="200" r="1.5" fill="#c8b89a" opacity="0.4"/>
  <circle cx="350" cy="320" r="1" fill="#c8b89a" opacity="0.3"/>
  <circle cx="900" cy="250" r="2" fill="#c8b89a" opacity="0.35"/>
  <circle cx="1050" cy="400" r="1.5" fill="#c8b89a" opacity="0.3"/>
  <circle cx="150" cy="500" r="1" fill="#c8b89a" opacity="0.25"/>
  <circle cx="1100" cy="550" r="1.5" fill="#c8b89a" opacity="0.25"/>
  <!-- HUD overlay elements -->
  <rect x="0" y="44" width="220" height="676" fill="#0a0908" fill-opacity="0.7"/>
  <text x="20" y="80" font-family="monospace" font-size="9" fill="#6a6762" letter-spacing="2">SCENE</text>
  <rect x="14" y="92" width="190" height="28" rx="4" fill="#1a1815"/>
  <text x="22" y="110" font-family="monospace" font-size="10" fill="#c8b89a">▸ Object_001</text>
  <rect x="14" y="124" width="190" height="28" rx="4" fill="#141210"/>
  <text x="22" y="142" font-family="monospace" font-size="10" fill="#6a6762">  Camera</text>
  <rect x="14" y="156" width="190" height="28" rx="4" fill="#141210"/>
  <text x="22" y="174" font-family="monospace" font-size="10" fill="#6a6762">  DirectionalLight</text>
  <!-- Properties panel right -->
  <rect x="980" y="44" width="220" height="676" fill="#0a0908" fill-opacity="0.7"/>
  <text x="995" y="80" font-family="monospace" font-size="9" fill="#6a6762" letter-spacing="2">PROPERTIES</text>
  <text x="995" y="108" font-family="monospace" font-size="9" fill="#6a6762">Position X</text>
  <rect x="995" y="114" width="190" height="20" rx="3" fill="#1a1815"/>
  <text x="1001" y="128" font-family="monospace" font-size="9" fill="#c8b89a">0.00</text>
  <text x="995" y="148" font-family="monospace" font-size="9" fill="#6a6762">Position Y</text>
  <rect x="995" y="154" width="190" height="20" rx="3" fill="#1a1815"/>
  <text x="1001" y="168" font-family="monospace" font-size="9" fill="#c8b89a">0.00</text>
  <!-- Bottom toolbar -->
  <rect x="220" y="680" width="760" height="40" fill="#0a0908" fill-opacity="0.9"/>
  <rect x="240" y="692" width="60" height="16" rx="3" fill="#1a1815"/>
  <rect x="312" y="692" width="60" height="16" rx="3" fill="#c8b89a" fill-opacity="0.2"/>
  <rect x="384" y="692" width="60" height="16" rx="3" fill="#1a1815"/>
  <text x="600" y="704" text-anchor="middle" font-family="monospace" font-size="9" fill="#6a6762">Frame 1 / 120 · 24fps</text>
</svg>
